<svg width="80" height="97" viewBox="0 0 80 97" fill="none" xmlns="http://www.w3.org/2000/svg">
<path d="M0 96.584V80.584H5.504C9.6 80.584 12.8427 79.432 15.232 77.128C17.7067 74.7387 18.944 71.5813 18.944 67.656V1.224H36.48V67.016C36.48 72.904 35.2 78.0667 32.64 82.504C30.1653 86.9413 26.5813 90.3973 21.888 92.872C17.28 95.3467 11.8187 96.584 5.504 96.584H0Z" fill="#0077B5"/>
<path d="M60.936 36.352C57.5227 36.352 54.408 35.5627 51.592 33.984C48.8187 32.4053 46.6 30.2507 44.936 27.52C43.3147 24.7893 42.504 21.6747 42.504 18.176C42.504 14.6773 43.3147 11.5627 44.936 8.832C46.6 6.10134 48.8187 3.94667 51.592 2.368C54.3653 0.789333 57.48 0 60.936 0C64.3493 0 67.4427 0.789333 70.216 2.368C72.9893 3.94667 75.1867 6.10134 76.808 8.832C78.472 11.52 79.304 14.6347 79.304 18.176C79.304 21.6747 78.472 24.7893 76.808 27.52C75.144 30.2507 72.9253 32.4053 70.152 33.984C67.3787 35.5627 64.3067 36.352 60.936 36.352ZM60.936 28.672C62.8133 28.672 64.456 28.224 65.864 27.328C67.3147 26.432 68.4453 25.1947 69.256 23.616C70.1093 21.9947 70.536 20.1813 70.536 18.176C70.536 16.128 70.1093 14.336 69.256 12.8C68.4453 11.2213 67.3147 9.984 65.864 9.088C64.456 8.14934 62.8133 7.68 60.936 7.68C59.016 7.68 57.3307 8.14934 55.88 9.088C54.4293 9.984 53.2773 11.2213 52.424 12.8C51.6133 14.336 51.208 16.128 51.208 18.176C51.208 20.1813 51.6133 21.9947 52.424 23.616C53.2773 25.1947 54.4293 26.432 55.88 27.328C57.3307 28.224 59.016 28.672 60.936 28.672Z" fill="#0077B5"/>
</svg>
